HIERARCHY
ROOT root
{
	OFFSET	0	13.1	24.9
	CHANNELS 6  Xposition Yposition Zposition Xrotation Yrotation Zrotation
	JOINT spine_1
	{
		OFFSET	0	9.99999	0
		CHANNELS 3  Xrotation Yrotation Zrotation
		JOINT spine_2
		{
			OFFSET	0	112	-10
			CHANNELS 3  Xrotation Yrotation Zrotation
			JOINT spine_3
			{
				OFFSET	0	206.5	19.3
				CHANNELS 3  Xrotation Yrotation Zrotation
				JOINT spine_4
				{
					OFFSET	0	110.4	14.6
					CHANNELS 3  Xrotation Yrotation Zrotation
					JOINT neck_1
					{
						OFFSET	0	71.8	-50.3
						CHANNELS 3  Xrotation Yrotation Zrotation
						JOINT neck_2
						{
							OFFSET	0	86.2	-25.8
							CHANNELS 3  Xrotation Yrotation Zrotation
							JOINT head_ee
							{
								OFFSET	0	179.8	-8.7
								CHANNELS 3  Xrotation Yrotation Zrotation
								End Site
								{
									OFFSET	1	0	0
								}
							}
						}
					}
					JOINT left_clavicle
					{
						OFFSET	-43.2	22.4	-70.8
						CHANNELS 3  Xrotation Yrotation Zrotation
						JOINT left_shoulder
						{
							OFFSET	-93.9	-5.79999	48.7
							CHANNELS 3  Xrotation Yrotation Zrotation
							JOINT left_elbow
							{
								OFFSET	-291.4	-30.8	15.2
								CHANNELS 3  Xrotation Yrotation Zrotation
								JOINT left_lowarm_twist
								{
									OFFSET	-110.7	-3.89999	13.6
									CHANNELS 3  Xrotation Yrotation Zrotation
									JOINT left_hand
									{
										OFFSET	-110.7	-3.89999	13.6
										CHANNELS 3  Xrotation Yrotation Zrotation
										JOINT left_ee
										{
											OFFSET	-80.8	-5.10001	12.1
											CHANNELS 3  Xrotation Yrotation Zrotation
											End Site
											{
												OFFSET	1	0	0
											}
										}
									}
								}
							}
						}
					}
					JOINT right_clavicle
					{
						OFFSET	43.2	22.4	-70.8
						CHANNELS 3  Xrotation Yrotation Zrotation
						JOINT right_shoulder
						{
							OFFSET	93.9	-5.79999	48.7
							CHANNELS 3  Xrotation Yrotation Zrotation
							JOINT right_elbow
							{
								OFFSET	291.4	-30.8	15.2
								CHANNELS 3  Xrotation Yrotation Zrotation
								JOINT right_lowarm_twist
								{
									OFFSET	110.7	-3.89999	13.6
									CHANNELS 3  Xrotation Yrotation Zrotation
									JOINT right_hand
									{
										OFFSET	110.7	-3.89999	13.6
										CHANNELS 3  Xrotation Yrotation Zrotation
										JOINT right_ee
										{
											OFFSET	80.8	-5.10001	12.1
											CHANNELS 3  Xrotation Yrotation Zrotation
											End Site
											{
												OFFSET	1	0	0
											}
										}
									}
								}
							}
						}
					}
				}
			}
		}
	}
	JOINT left_hip
	{
		OFFSET	-82.8	-127.5	0.300001
		CHANNELS 3  Xrotation Yrotation Zrotation
		JOINT left_knee
		{
			OFFSET	-28.2	-396.7	2.2
			CHANNELS 3  Xrotation Yrotation Zrotation
			JOINT left_ankle
			{
				OFFSET	-11.7	-411.3	35.4
				CHANNELS 3  Xrotation Yrotation Zrotation
				JOINT left_toes
				{
					OFFSET	0	-60	-88.6
					CHANNELS 3  Xrotation Yrotation Zrotation
					JOINT left_foot_ee
					{
						OFFSET	-22.5	-16.5	-42.2
						CHANNELS 3  Xrotation Yrotation Zrotation
						End Site
						{
							OFFSET	1	0	0
						}
					}
				}
			}
		}
	}
	JOINT right_hip
	{
		OFFSET	82.8	-127.5	0.300001
		CHANNELS 3  Xrotation Yrotation Zrotation
		JOINT right_knee
		{
			OFFSET	28.2	-396.7	2.2
			CHANNELS 3  Xrotation Yrotation Zrotation
			JOINT right_ankle
			{
				OFFSET	11.7	-411.3	35.4
				CHANNELS 3  Xrotation Yrotation Zrotation
				JOINT right_toes
				{
					OFFSET	0	-60	-88.6
					CHANNELS 3  Xrotation Yrotation Zrotation
					JOINT right_foot_ee
					{
						OFFSET	22.5	-16.5	-42.2
						CHANNELS 3  Xrotation Yrotation Zrotation
						End Site
						{
							OFFSET	1	0	0
						}
					}
				}
			}
		}
	}
}
MOTION
Frames: 5
Frame Time: 0.02
1372.05 701.618 -1475.22 -15.302451146 34.1408977786 10.3905783701 2.04946 -0.207032 -0.99716 2.05 -0.143163 -1.00831 2.05251 0.0355232 -1.0178 2.05109 -0.125657 -1.01064 0.519842 4.94621 -1.32636 0.609112 9.87477 -0.948295 -0.0 0.0 -0.0 8.97381 7.55966 17.152 -21.2337 -56.6906 32.2654 1.81352 -41.9314 0.694948 6.83964 0.190285 -0.85244 -2.75023 -19.6833 -27.5303 -0.0 0.0 -0.0 7.98295 -14.7852 -14.7876 -59.9238 56.2677 -38.7342 0.286429 8.0759 -0.0202198 51.192 1.05546 6.23899 -0.142674 -6.09258 -1.6106 0.0 0.0 0.0 6.25466 -10.5925 2.7765 -17.565 0.316676 2.66636 37.9905 20.6659 -4.85361 -25.9901 0.0 0.0 -0.0 0.0 -0.0 40.5419 7.84317 -4.10273 -6.6026 -0.214998 -0.989937 -4.15019 -1.93177 -0.616939 5.5271 -0.0 -0.0 0.0 0.0 0.0 
1356.39593843 702.81 -1491.09315207 -14.5057881266 35.6431420637 9.70534866752 1.94038 -0.430992 -1.12014 1.94101 -0.358846 -1.14529 1.94826 -0.150732 -1.19068 1.94644 -0.336875 -1.15195 0.193728 4.20452 -4.30753 0.368379 11.011 -4.22615 -0.0 0.0 -0.0 9.06228 7.62168 17.3147 -20.503 -56.1275 36.2313 1.78117 -41.4194 0.67344 8.35528 0.218588 -1.04397 -2.48956 -16.6224 -24.3867 -0.0 0.0 -0.0 8.06169 -15.6709 -14.8407 -60.5279 55.4915 -36.9546 0.36968 10.3777 -0.0335712 50.6986 1.01928 6.18719 -0.37204 -6.29651 -0.198052 0.0 0.0 0.0 4.99569 -11.1664 2.93737 -19.4567 0.301707 2.95623 35.9239 18.6712 -4.60827 -24.9862 0.0 0.0 -0.0 0.0 -0.0 39.1076 8.73295 -2.72534 -7.29052 -0.230799 -1.09432 -3.17588 -1.63527 -0.471448 5.31527 -0.0 -0.0 0.0 0.0 0.0 
1356.64741795 702.81 -1491.3372909 -14.3474304754 34.7707492405 9.43068389133 1.94038 -0.430992 -1.12014 1.94101 -0.358846 -1.14529 1.94826 -0.150732 -1.19068 1.94644 -0.336875 -1.15195 0.193728 4.20452 -4.30753 0.368379 11.011 -4.22615 -0.0 0.0 -0.0 9.06228 7.62168 17.3147 -20.503 -56.1275 36.2313 1.78117 -41.4194 0.67344 8.35528 0.218588 -1.04397 -2.48956 -16.6224 -24.3867 -0.0 0.0 -0.0 8.06169 -15.6709 -14.8407 -60.5279 55.4915 -36.9546 0.36968 10.3777 -0.0335712 50.6986 1.01928 6.18719 -0.37204 -6.29651 -0.198052 0.0 0.0 0.0 4.99569 -11.1664 2.93737 -19.4567 0.301707 2.95623 35.9239 18.6712 -4.60827 -24.9862 0.0 0.0 -0.0 0.0 -0.0 39.1076 8.73295 -2.72534 -7.29052 -0.230799 -1.09432 -3.17588 -1.63527 -0.471448 5.31527 -0.0 -0.0 0.0 0.0 0.0 
1348.25949721 706.059 -1504.68973324 -14.4564470821 34.8299177387 8.69684492279 2.13193 -0.450921 -1.01966 2.13243 -0.385127 -1.04628 2.13951 -0.19777 -1.09723 2.13802 -0.368565 -1.05223 1.01947 4.11117 -3.81364 1.17936 10.4354 -3.78136 -0.0 0.0 -0.0 9.74145 5.38298 18.7946 -21.5578 -51.9272 37.3997 1.6175 -38.7009 0.568072 9.98781 0.243393 -1.25102 -2.27168 -19.3793 -23.9207 -0.0 0.0 -0.0 8.44503 -15.0432 -15.5479 -61.1317 54.9192 -35.7356 0.364062 10.2233 -0.0325665 50.7156 1.02051 6.18898 -0.186632 -6.47876 -1.48461 0.0 0.0 0.0 6.87331 -10.0931 3.85066 -21.8893 0.268408 3.32797 36.2269 20.4659 -4.67493 -22.5935 0.0 0.0 -0.0 0.0 -0.0 37.9143 9.29447 -1.88348 -7.17945 -0.228333 -1.07746 0.166599 2.66178 0.0248327 5.8405 -0.0 -0.0 0.0 0.0 0.0 
1322.5047195 709.363 -1534.10529596 -15.1746655684 35.1352764887 8.22441685659 2.13459 0.0675679 -0.661162 2.13483 0.109501 -0.655522 2.13354 0.22167 -0.626549 2.13301 0.119938 -0.653693 0.374157 4.44074 -3.29343 0.514167 10.5981 -3.1201 -0.0 0.0 -0.0 9.07317 3.87048 17.5821 -22.9213 -50.7846 41.2164 1.51298 -36.8486 0.50404 11.7939 0.263949 -1.4808 -1.87006 -21.0896 -21.733 -0.0 0.0 -0.0 8.76498 -14.268 -16.1755 -59.9266 55.1903 -34.5843 0.419141 11.7299 -0.0430551 51.6505 1.08948 6.28684 -0.106633 -5.10201 -1.43357 0.0 0.0 0.0 9.16424 -10.4277 5.22516 -26.338 0.16682 4.00293 23.431 22.2654 -3.26439 -22.0154 0.0 0.0 -0.0 0.0 -0.0 35.8251 9.99293 -0.407722 -7.33631 -0.231806 -1.10128 0.981485 3.98558 0.14669 4.1776 -0.0 -0.0 0.0 0.0 0.0 
